HIERARCHY
ROOT Hips
{
  OFFSET 0 0 0
  CHANNELS 6 Xposition Yposition Zposition Zrotation Yrotation Xrotation
  JOINT LeftThigh
  {
    OFFSET 8.409438 0 -5.917753
    CHANNELS 3 Zrotation Yrotation Xrotation
    JOINT LeftLeg
    {
      OFFSET 0 0 -42.358652
      CHANNELS 3 Zrotation Yrotation Xrotation
      JOINT LeftFoot
      {
        OFFSET 0 0 -39.357303
        CHANNELS 3 Zrotation Yrotation Xrotation
      }
    }
  }
  JOINT RightThigh
  {
    OFFSET -8.409438 0 -5.917753
    CHANNELS 3 Zrotation Yrotation Xrotation
    JOINT RightLeg
    {
      OFFSET 0 0 -42.358652
      CHANNELS 3 Zrotation Yrotation Xrotation
      JOINT RightFoot
      {
        OFFSET 0 0 -39.357303
        CHANNELS 3 Zrotation Yrotation Xrotation
      }
    }
  }
  JOINT SpineLow
  {
    OFFSET 0 0 4.719101
    CHANNELS 3 Zrotation Yrotation Xrotation
    JOINT SpineMid
    {
      OFFSET 0 0 12.899191
      CHANNELS 3 Zrotation Yrotation Xrotation
      JOINT Chest
      {
        OFFSET 0 0 12.899191
        CHANNELS 3 Zrotation Yrotation Xrotation
        JOINT LeftShoulder
        {
          OFFSET 7.550562 1.41573 9.438202
          CHANNELS 3 Zrotation Yrotation Xrotation
          JOINT LeftArm
          {
            OFFSET 9.155056 0 4.247191
            CHANNELS 3 Zrotation Yrotation Xrotation
            JOINT LeftForearm
            {
              OFFSET 0 0 25.771955
              CHANNELS 3 Zrotation Yrotation Xrotation
              JOINT LeftHand
              {
                OFFSET 0 0 25.197169
                CHANNELS 3 Zrotation Yrotation Xrotation
              }
            }
          }
        }
        JOINT RightShoulder
        {
          OFFSET -7.550562 1.41573 9.438202
          CHANNELS 3 Zrotation Yrotation Xrotation
          JOINT RightArm
          {
            OFFSET -9.155056 0 4.247191
            CHANNELS 3 Zrotation Yrotation Xrotation
            JOINT RightForearm
            {
              OFFSET 0 0 -25.771955
              CHANNELS 3 Zrotation Yrotation Xrotation
              JOINT RightHand
              {
                OFFSET 0 0 -25.197169
                CHANNELS 3 Zrotation Yrotation Xrotation
              }
            }
          }
        }
        JOINT Neck
        {
          OFFSET 0 0 15.101124
          CHANNELS 3 Zrotation Yrotation Xrotation
          JOINT Head
          {
            OFFSET 0 0 11.325843
            CHANNELS 3 Zrotation Yrotation Xrotation
            End Site
            {
              OFFSET 0 0 14.157303
            }
          }
        }
      }
    }
  }
}
MOTION
Frames: 10
Frame Time: 0.0
0.0  101.685394  0.0  5.791924  16.752794  -109.168167  17.525594  -21.533556  -81.5518  36.13889  39.707116  115.199041  -4.112928  -3.240904  -2.010619  -29.507122  7.402249  -17.232779  9.642029  7.138736  31.603426  30.549422  0.311567  9.290003  -6.385876  3.551102  2.762244  -17.149959  10.345589  6.599541  -17.149959  10.345588  6.599541  -0.961869  13.09256  12.064393  155.195849  73.457336  -165.145273  -47.195816  -54.012543  66.825321  75.691988  12.351725  7.140019  41.601714  -1.208221  19.903949  116.640515  63.294711  23.64972  -37.258249  27.469369  -80.27942  65.467074  -26.1416  55.720882  9.969478  -2.343023  0.849037  7.479338  -1.743972  0.675148  
0.0  101.685394  0.0  5.895874  16.952983  -109.595593  18.693122  -21.306757  -83.842716  37.533307  40.893732  115.082045  -4.235036  -3.960666  -1.912003  -28.998259  7.912933  -16.160739  8.993441  7.365065  30.816032  30.711722  0.200555  9.169338  -6.276671  3.535726  2.714737  -16.857821  10.282277  6.491342  -16.857822  10.282277  6.491342  0.627913  15.687816  14.162344  154.951992  69.354576  -163.997259  -51.785606  -53.268273  73.091  75.971256  12.869442  7.371497  39.976053  -2.77314  24.197387  121.532171  59.815211  27.231464  -34.973853  30.491688  -79.666003  63.218791  -24.386099  56.704034  9.590256  -2.268047  0.817531  7.194802  -1.688704  0.648869  
0.0  101.685394  0.0  5.890326  17.337392  -109.954904  19.68717  -21.1687  -86.121304  39.309468  42.263421  115.188888  -4.224789  -4.64223  -1.815056  -28.730519  8.266393  -15.146705  8.323456  7.731345  29.964761  30.923864  0.010486  9.097074  -6.191481  3.562186  2.634256  -16.635089  10.326698  6.278933  -16.63509  10.326698  6.278934  2.272932  17.821615  17.029345  156.696247  65.775813  -161.042708  -54.502145  -51.275932  77.597077  76.493463  13.609116  9.00443  38.615345  -4.528726  28.854325  125.687171  56.654122  30.699542  -32.064667  32.800945  -77.703295  60.755826  -21.820154  58.346171  9.188873  -2.423638  0.80921  6.89385  -1.80605  0.643454  
0.0  101.685394  0.0  5.833583  17.590058  -110.29994  20.763758  -21.048702  -88.287394  41.194508  43.661571  115.304376  -4.10919  -5.271945  -1.604297  -28.551484  8.459467  -14.179421  7.962473  7.992165  29.26127  30.959243  -0.08016  9.091465  -6.186791  3.594356  2.533896  -16.637025  10.388787  5.997568  -16.637025  10.388787  5.997568  4.450329  19.827035  19.798939  158.079127  62.410777  -158.562806  -56.086256  -48.486895  80.671496  77.036565  14.665847  11.152639  38.63575  -6.227548  32.979587  128.50308  53.222756  34.014776  -29.495214  33.498086  -75.288563  59.052218  -18.918475  60.34726  9.172035  -2.571316  0.780894  6.881169  -1.917284  0.624357  
0.0  101.685394  0.0  5.778637  17.781322  -110.530379  21.840014  -20.834891  -90.303928  42.996349  44.941224  115.358251  -4.021313  -5.836294  -1.342356  -28.652795  8.52859  -13.484249  7.77086  8.189586  28.732518  30.613529  0.003564  9.071358  -6.273913  3.4522  2.51802  -16.885126  10.006337  5.974144  -16.885126  10.006337  5.974144  6.509486  22.567824  21.057957  157.672179  58.546664  -157.60249  -57.493355  -45.937661  83.194187  77.500601  15.776051  13.554242  39.35998  -6.855746  36.029126  130.042376  49.608247  36.046537  -27.610902  32.435143  -71.050945  65.388118  -21.244768  65.395917  9.413338  -2.088883  0.345773  7.060405  -1.561776  0.291574  
0.0  101.685394  0.0  5.71458  18.016329  -110.623896  15.280693  -24.69901  -91.513854  44.772063  37.95041  109.13776  -5.218456  -5.50846  0.046477  -29.209409  8.519102  -13.2463  7.859156  8.209663  28.578969  30.710506  0.075976  9.280434  -6.525498  3.117416  2.85583  -17.542674  9.207359  6.940356  -17.542673  9.207359  6.940356  7.544857  26.082423  19.218704  157.909251  54.583953  -156.1127  -58.148371  -43.653964  85.286466  79.02851  15.121994  17.013777  40.523775  -4.492172  37.690246  130.068845  48.475118  35.747914  -33.462619  37.016269  -74.18164  60.630532  -20.336014  71.104654  10.032673  -0.965724  -1.396455  7.522168  -0.747463  -1.031789  
0.0  101.685394  0.0  5.721508  18.526701  -110.799679  23.778938  -23.408169  -93.457713  46.65349  44.406113  114.161348  -6.832522  -5.345313  -1.546806  -30.410138  8.680099  -13.350291  8.208388  8.088678  28.820512  29.920889  0.433839  9.25218  -6.989236  2.630945  3.404625  -18.775025  8.08813  8.496396  -18.775027  8.08813  8.496396  8.510552  30.867333  16.155009  159.970985  51.325147  -152.409727  -61.882335  -42.522992  91.612249  86.276815  14.706433  13.777525  42.946625  -0.763022  38.509448  127.584307  50.320194  33.668119  -33.983932  40.365157  -76.310375  57.275966  -8.260368  80.521133  11.088071  0.840762  -3.716644  8.32138  0.563372  -2.803785  
0.0  101.685394  0.0  5.625747  19.184588  -111.016691  30.034931  -19.727978  -93.539214  49.680271  51.528158  119.249069  -6.156905  -7.078843  -1.648747  -31.943042  8.839997  -13.704024  8.759786  7.831151  29.357081  29.892294  0.502594  9.505975  -6.872595  2.503446  4.275142  -18.355455  7.966538  10.91486  -18.355455  7.966538  10.914861  5.590067  32.230242  12.377959  165.910741  49.946052  -145.725357  -59.44827  -44.852915  93.132482  82.247066  14.812354  11.277328  41.425081  0.629414  35.267138  124.709434  51.182101  32.566387  -34.247265  44.079052  -76.14618  53.535415  -6.338517  83.003147  10.281068  0.866872  -6.610525  7.721101  0.539181  -4.974054  
0.0  101.685394  0.0  5.676521  20.020899  -111.467132  25.627944  -20.076238  -90.488703  45.842649  49.857859  111.949285  -7.855759  -7.351839  -0.815806  -33.422364  9.397698  -14.142352  9.235034  7.434013  30.144612  29.704065  0.604237  9.777584  -6.309675  2.521033  4.543967  -16.776694  7.992283  11.717802  -16.776694  7.992283  11.717802  2.861789  32.03742  13.048422  170.918918  49.840165  -142.0677  -58.131125  -43.260489  94.405684  79.030877  14.129196  10.115052  37.151127  -0.690636  34.744856  121.819597  51.683961  31.327561  -36.926888  41.31304  -82.181315  58.061719  -10.652079  83.027648  8.251706  0.426781  -6.906772  6.194512  0.226898  -5.18694  
0.0  101.685394  0.0  5.826904  20.419844  -111.4546  19.746575  -19.392858  -88.123102  40.927674  47.277983  104.492537  -7.90178  -6.899447  -0.112939  -34.450876  9.536538  -14.975861  9.693077  6.983873  30.956082  29.27981  0.83388  10.100638  -6.285656  2.501948  4.29221  -16.746198  7.874501  11.038849  -16.746198  7.874501  11.038849  4.846607  32.624868  15.842623  174.8635  49.923602  -140.9017  -57.296625  -39.098696  97.290281  78.929336  13.723988  9.149712  36.717112  -1.00441  36.659776  118.571038  52.361063  28.758881  -38.858528  40.978651  -88.64745  62.369786  -14.66141  82.922415  8.488482  0.798259  -5.794764  6.374507  0.518371  -4.358088  
